# xmcd
# 
# Track frame offsets:
#     150
#     17550
#     36610
#     57297
#     68855
#     86542
#     99765
#     118120
#     132440
#     152515
#     166680
#     187605
#     202567
#     231947
# 
# Disc length: 3158
# 
# Revision: 4
# Processed by: cddbd v1.5.2PL0 Copyright (c) Steve Scherf et al.
# Submitted via: BonkEnc v1.0.8
# 
DISCID=a50c540e
DTITLE=Michael Buble - Michael Buble CD 1
DYEAR=2003
DGENRE=Jazz
TTITLE0=Michael Buble - Fever
TTITLE1=Michael Buble - Moondance
TTITLE2=Michael Buble - Kissing A Fool
TTITLE3=Michael Buble - For Once In My Life
TTITLE4=Michael Buble - How Can You Mend A Broken Heart
TTITLE5=Michael Buble - Summer Wind
TTITLE6=Michael Buble - You'll Never Find Another Love Like Mine
TTITLE7=Michael Buble - Crazy Little Thing Called Love
TTITLE8=Michael Buble - Put Your Head On My Shoulder
TTITLE9=Michael Buble - Sway
TTITLE10=Michael Buble - The Way You Look Tonight
TTITLE11=Michael Buble - Come Fly With Me
TTITLE12=Michael Buble - That's All
TTITLE13=Michael Buble - additional content
EXTD=YEAR: 2003
EXTT0=
EXTT1=
EXTT2=
EXTT3=
EXTT4=
EXTT5=
EXTT6=
EXTT7=
EXTT8=
EXTT9=
EXTT10=
EXTT11=
EXTT12=
EXTT13=
PLAYORDER=
